/* XPM */
static char *_[] = {
/* columns rows colors chars-per-pixel */
"24 24 113 2 ",
"   c #555753",
".  c #565854",
"X  c #575955",
"o  c #585A54",
"O  c #585A56",
"+  c #595B56",
"@  c #585A57",
"#  c #595A57",
"$  c #595B57",
"%  c #5A5B57",
"&  c #595B58",
"*  c #5C5E5A",
"=  c #5D5F5B",
"-  c #60625E",
";  c #656762",
":  c #6A6C69",
">  c #6C6D69",
",  c #717370",
"<  c #727470",
"1  c #747572",
"2  c #A40000",
"3  c #A50000",
"4  c #A60000",
"5  c #C20000",
"6  c #C30000",
"7  c #C60000",
"8  c #C60101",
"9  c #C70606",
"0  c #C80000",
"q  c #CC0000",
"w  c #CC0101",
"e  c #CC0404",
"r  c #C90E0E",
"t  c #CE0C0C",
"y  c #CA1313",
"u  c #D01515",
"i  c #D01616",
"p  c #D01717",
"a  c #D32424",
"s  c #D32525",
"d  c #D42B2B",
"f  c #D53131",
"g  c #D63333",
"h  c #DA4A4A",
"j  c #DD5959",
"k  c #888984",
"l  c #898B86",
"z  c #8A8B87",
"x  c #8A8C87",
"c  c #8B8D88",
"v  c #8B8E88",
"b  c #8C8E89",
"n  c #8C8E8A",
"m  c #8D8E8A",
"M  c #8D8F8A",
"N  c #8E908B",
"B  c #8F918D",
"V  c #AFB0AF",
"C  c #ECA1A1",
"Z  c #F1B9B9",
"A  c #BFC0BC",
"S  c #C1C2BF",
"D  c #C1C1C1",
"F  c #C5C6C2",
"G  c #C6C6C6",
"H  c #C7C8C5",
"J  c #C7C8C6",
"K  c #C8C9C6",
"L  c #C8C9C7",
"P  c #C9C9C7",
"I  c #C9CAC7",
"U  c #CBCBC8",
"Y  c #CBCCCB",
"T  c #CCCDCB",
"R  c #CFD0CD",
"E  c #D0D1CD",
"W  c #D0D0D0",
"Q  c #D2D2D0",
"!  c #D4D4D3",
"~  c #D5D6D3",
"^  c #D6D7D3",
"/  c #D6D6D4",
"(  c #D7D7D5",
")  c gray84",
"_  c #DADAD6",
"`  c #DBDBD9",
"'  c #DADBDA",
"]  c #DBDCD9",
"[  c #F5CECE",
"{  c #F6D3D3",
"}  c #F8DEDE",
"|  c gray88",
" . c #E4E4E2",
".. c #E4E5E2",
"X. c gray90",
"o. c #E7E8E6",
"O. c #E9EAE8",
"+. c #EAEAEA",
"@. c #ECECEA",
"#. c #F9E4E4",
"$. c #FBECEC",
"%. c gray94",
"&. c #F6F6F5",
"*. c #F6F7F6",
"=. c #FDF5F5",
"-. c #FDF6F6",
";. c #FAFAF9",
":. c #FCFCFB",
">. c #FEFCFC",
",. c #FEFDFD",
"<. c #FEFEFE",
"1. c gray100",
"2. c None",
/* pixels */
"2.2.2.2.2.2.2.2.2.2.2.2.2.2.2.2.2.2.2.2.2.2.2.2.",
"2.2.2.2.2.2.2.2.2.2.2.2.2.2.2.2.2.2.2.2.2.2.2.2.",
"2.2.2.2.2.2.2.2.2.2.2.2.2.2.2.2.2.2.2.2.2.2.2.2.",
"2.2.2.2.2.2.2.2.2.2.B - 2.2.2.2.2.2.2.2.2.2.2.2.",
"2.2.2.2.2.2.2.2.2.2.z ! * 2.2.2.2.2.2.2.2.2.2.2.",
"2.2.2.2.2.2.2.2.2.2.x %.& 2.2.2.2.2.2.2.2.2.2.2.",
"2.2.2.2.2.2.2.2.2.; M %.& 2.2.2.2.2.2.2.2.2.2.2.",
"2.2.2.. . O   * : _ N %.& 2.2.2.2.2.2.2.2.2.2.2.",
"2.2.2.  ( (   <  .@.M %.& 2.2.2.2.2.2.2.2.2.2.2.",
"2.2.     . .  o.;.&.B %.& 2.2.2.2.2.2.2.2.2.2.2.",
"2.2..   <.<.  :.&.O.N O.& 2.2.2.2.2.2.2.2.2.2.2.",
"2.2.. .  . .  ' ] ^ M X.O 2.2.2.2.2.2.2.2.2.2.2.",
"2.2.    ] ] . ) ) R M | % 2.2.2.2.2.2.2.2.2.2.2.",
"2.2.    E ! = E T U M ' % 2.2.2.2.2.2.2.2.2.2.2.",
"2.2.    I Y O I I F M ) % 2.2.4 4 2 4 4 4 4 2.2.",
"2.2.2.  S H   1 H S v W & 2.4 5 9 r 8 y 8 5 4 2.",
"2.2.2.  O O . O , I x T O 2.4 e Z { d #.C w 4 2.",
"2.2.2.2.2.2.2.2.  > x G O 2.4 s =.<.<.>.$.u 4 2.",
"2.2.2.2.2.2.2.2.2.O z D . 2.4 w h <.<.<.g 0 2 2.",
"2.2.2.2.2.2.2.2.2.2.z V O 2.4 y } <.<.<.[ t 4 2.",
"2.2.2.2.2.2.2.2.2.2.z * 2.2.4 u } $.j =.[ t 4 2.",
"2.2.2.2.2.2.2.2.2.2.2.2.2.2.2 0 u a 0 g t 0 4 2.",
"2.2.2.2.2.2.2.2.2.2.2.2.2.2.4 4 4 2 4 2 2 4 4 2.",
"2.2.2.2.2.2.2.2.2.2.2.2.2.2.2.2.2.2.2.2.2.2.2.2."
};
