/* XPM */
static char *_[] = {
/* columns rows colors chars-per-pixel */
"24 24 77 1 ",
"  c #555753",
". c #565854",
"X c #575955",
"o c #585A54",
"O c #585A56",
"+ c #595B56",
"@ c #585A57",
"# c #595A57",
"$ c #595B57",
"% c #5A5B57",
"& c #595B58",
"* c #5C5E5A",
"= c #5D5F5B",
"- c #60625E",
"; c #656762",
": c #6A6C69",
"> c #6C6D69",
", c #717370",
"< c #727470",
"1 c #747572",
"2 c #427DC6",
"3 c #888984",
"4 c #898B86",
"5 c #8A8B87",
"6 c #8A8C87",
"7 c #8B8D88",
"8 c #8B8E88",
"9 c #8C8E89",
"0 c #8C8E8A",
"q c #8D8E8A",
"w c #8D8F8A",
"e c #8E908B",
"r c #8F918D",
"t c #AFB0AF",
"y c #BFC0BC",
"u c #C1C2BF",
"i c #C1C1C1",
"p c #C5C6C2",
"a c #C6C6C6",
"s c #C7C8C5",
"d c #C7C8C6",
"f c #C8C9C6",
"g c #C8C9C7",
"h c #C9C9C7",
"j c #C9CAC7",
"k c #CBCBC8",
"l c #CBCCCB",
"z c #CCCDCB",
"x c #CFD0CD",
"c c #D0D1CD",
"v c #D0D0D0",
"b c #D2D2D0",
"n c #D4D4D3",
"m c #D5D6D3",
"M c #D6D7D3",
"N c #D6D6D4",
"B c #D7D7D5",
"V c gray84",
"C c #DADAD6",
"Z c #DBDBD9",
"A c #DADBDA",
"S c #DBDCD9",
"D c gray88",
"F c #E4E4E2",
"G c #E4E5E2",
"H c gray90",
"J c #E7E8E6",
"K c #E9EAE8",
"L c #EAEAEA",
"P c #ECECEA",
"I c gray94",
"U c #F6F6F5",
"Y c #F6F7F6",
"T c #FAFAF9",
"R c #FCFCFB",
"E c gray100",
"W c None",
/* pixels */
"WWWWWWWWWWWWWWWWWWWWWWWW",
"WWWWWWWWWWWWWWWWWWWWWWWW",
"WWWWWWWWWWWWWWWWWWWWWWWW",
"WWWWWWWWWWr-WWWWWWWWWWWW",
"WWWWWWWWWW5n*WWWWWWWWWWW",
"WWWWWWWWWW6I&WWWWWWWWWWW",
"WWWWWWWWW;wI&WWWWWWWWWWW",
"WWW..O *:CeI&WWWWWWWWWWW",
"WWW BB <FPwI&WWWWW22WWWW",
"WW  FF JTUrI&WWWW2222WWW",
"WW  EE RUKeK&WWWW2222WWW",
"WW  FF ZSMwHOWWWW2222WWW",
"WW  SS.VVxwD%WWWW2222WWW",
"WW  cn=czkwA%WWWW2222WWW",
"WW  jlOjjpwV%WWWW2222WWW",
"WWW us 1su8v&WWWW2222WWW",
"WWW O+ +,j6zOWWWW2222WWW",
"WWWWWWWW >6aOWWWW2222WWW",
"WWWWWWWWWO5i.WWWW2222WWW",
"WWWWWWWWWW5tOWWWW2222WWW",
"WWWWWWWWWW5*WWWWW2222WWW",
"WWWWWWWWWWWWWWWWW2222WWW",
"WWWWWWWWWWWWWWWWWW22WWWW",
"WWWWWWWWWWWWWWWWWWWWWWWW"
};
